<svg width="131" height="73" viewBox="0 0 131 73" xmlns="http://www.w3.org/2000/svg" xmlns:xlink="http://www.w3.org/1999/xlink"><defs><path id="a" d="M.035 72.965h130.84V.499H.035z"/></defs><g fill="none" fill-rule="evenodd"><mask id="b" fill="#fff"><use xlink:href="#a"/></mask><path d="M83.375.499L44.35 39.819v9.805h19L87.612 25.18V.499h-4.237zm-39.025 0v24.68L68.847.5H44.35zm33.53 49.125h9.732v-9.806l-9.733 9.806z" fill="#5D5E5C" mask="url(#b)"/><path d="M126.638.499l-39.026 39.32v9.805h9.734l16.765-16.89 16.764 16.89V.499h-4.237zm-39.026 0v5.537l9.501 9.572L112.11.498H87.612z" fill="#207AB3" mask="url(#b)"/><path d="M5.938 73C1.988 73 0 70.95 0 66.183c0-5.077 2.886-7.341 6.41-7.341 2.011 0 3.526.81 4.66 2.002L9.96 62.25c-.995-.572-2.082-.93-3.123-.93-2.13 0-3.62 1.573-3.62 4.41 0 3.717 1.396 4.79 3.217 4.79.805 0 1.467-.214 1.845-.477v-3.122H6.363v-2.05h4.992v6.293C9.935 72.332 8.043 73 5.938 73m9.982-.262V59.105h8.374v2.431h-5.227v3.122h4.376v2.288h-4.376v3.313h5.322v2.479H15.92m18.074-11.465c-1.846 0-3.193 1.192-3.193 4.386 0 3.67 1.23 4.885 3.359 4.885 1.892 0 3.241-1.191 3.241-4.48 0-3.528-1.23-4.79-3.407-4.79m-.07 11.725c-4.046 0-6.46-1.763-6.46-6.911 0-4.981 2.817-7.245 6.814-7.245 4.116 0 6.458 1.906 6.458 6.792 0 5.435-3.122 7.364-6.813 7.364" fill="#8DB63F" mask="url(#b)"/><path fill="#5D5E5C" mask="url(#b)" d="M53.44 72.738l-6.009-9.605v9.605h-2.626V59.105h3.927l5.465 8.413v-8.413h2.601v13.633H53.44m14.927-11.465c-1.846 0-3.194 1.192-3.194 4.386 0 3.67 1.23 4.885 3.359 4.885 1.893 0 3.24-1.191 3.24-4.48 0-3.528-1.23-4.79-3.405-4.79m-.071 11.725c-4.046 0-6.458-1.763-6.458-6.911 0-4.981 2.814-7.245 6.812-7.245 4.117 0 6.459 1.906 6.459 6.792 0 5.435-3.123 7.364-6.813 7.364m18.594-.261h-3.856c-1.987-4.696-3.336-9.034-4.471-13.633h3.502c.755 3.503 1.82 7.055 3.146 10.797h.023c1.23-3.575 2.129-7.151 2.84-10.797h3.122c-1.018 4.576-2.413 9.224-4.306 13.633m14.478.262c-3.761 0-5.773-1.597-5.773-5.338v-8.558h3.147v8.2c0 2.43.922 3.407 2.886 3.407 1.798 0 2.887-.857 2.887-3.216v-8.39h3.097v8.198c0 4.029-2.602 5.696-6.244 5.696"/><path d="M127.106 72.738c-.072-3.6-.378-7.15-.734-10.225h-.024l-3.595 10.225h-2.602l-3.501-10.202h-.025c-.33 3.052-.543 6.603-.591 10.202h-3.004c.141-4.529.568-9.129 1.277-13.633h4.14l3.265 9.128h.024l3.406-9.128h3.974a155.637 155.637 0 011.255 13.633h-3.265" fill="#5D5E5C"/><path fill="#8DB63F" d="M1.087 15.843l4.634 4.668 9.733-9.807L5.327.501h-4.24v15.342M40.11.501L1.087 39.82v9.805h9.734l11.897-11.987 4.634 4.669 9.734-9.808-4.635-4.669 11.9-11.986V.501h-4.24m4.239 49.123V39.82l-9.732 9.805h9.732"/></g></svg>